# Blender 4.1.1
# www.blender.org
mtllib course.mtl
o Road
v 0.013717 0.000002 -58.437477
v -1.946626 0.000002 -58.341171
v -3.888089 0.000002 -58.053185
v -5.791976 0.000002 -57.576286
v -7.639953 0.000002 -56.915070
v -9.414218 0.000002 -56.075901
v -11.097688 0.000002 -55.066872
v -12.674150 0.000002 -53.897686
v -14.128419 0.000002 -52.579613
v -15.446491 0.000002 -51.125343
v -16.615675 0.000002 -49.548882
v -17.624706 0.000002 -47.865410
v -18.463873 0.000002 -46.091148
v -19.125090 0.000002 -44.243172
v -19.601988 0.000002 -42.339283
v -19.889977 0.000002 -40.397820
v -19.986282 0.000002 -38.437477
v -19.889977 0.000002 -36.477135
v -19.601988 0.000002 -34.535671
v -19.125090 0.000002 -32.631783
v -18.463873 0.000002 -30.783808
v -17.624706 0.000002 -29.009542
v 17.652142 0.000002 -29.009542
v 18.491308 0.000002 -30.783808
v 19.152525 0.000002 -32.631783
v 19.629423 0.000002 -34.535671
v 19.917412 0.000002 -36.477135
v 20.013718 0.000002 -38.437477
v 19.917412 0.000002 -40.397820
v 19.629423 0.000002 -42.339283
v 19.152525 0.000002 -44.243172
v 18.491308 0.000002 -46.091148
v 17.652142 0.000002 -47.865410
v 16.643108 0.000002 -49.548882
v 15.473926 0.000002 -51.125343
v 14.155852 0.000002 -52.579613
v 12.701583 0.000002 -53.897686
v 11.125121 0.000002 -55.066872
v 9.441651 0.000002 -56.075901
v 7.667386 0.000002 -56.915070
v 5.819410 0.000002 -57.576286
v 3.915523 0.000002 -58.053185
v 1.974060 0.000002 -58.341171
v -1.554084 0.000002 -54.355629
v 0.013717 0.000002 -54.432655
v -3.106788 0.000002 -54.125309
v -4.629437 0.000002 -53.743904
v -6.107371 0.000002 -53.215096
v -7.526357 0.000002 -52.543961
v -8.872727 0.000002 -51.736980
v -10.133515 0.000002 -50.801914
v -11.296581 0.000002 -49.747776
v -12.350721 0.000002 -48.584709
v -13.285787 0.000002 -47.323921
v -14.092768 0.000002 -45.977551
v -14.763899 0.000002 -44.558563
v -15.292713 0.000002 -43.080631
v -15.674116 0.000002 -41.557983
v -15.904438 0.000002 -40.005280
v -15.981459 0.000002 -38.437477
v -15.904436 0.000002 -36.869675
v -15.674116 0.000002 -35.316971
v -15.292711 0.000002 -33.794323
v -14.763899 0.000002 -32.316391
v -14.092768 0.000002 -30.897404
v 14.120201 0.000002 -30.897404
v 14.791332 0.000002 -32.316391
v 15.320147 0.000002 -33.794323
v 15.701550 0.000002 -35.316971
v 15.931871 0.000002 -36.869675
v 16.008892 0.000002 -38.437477
v 15.931870 0.000002 -40.005280
v 15.701550 0.000002 -41.557983
v 15.320146 0.000002 -43.080631
v 14.791333 0.000002 -44.558563
v 14.120201 0.000002 -45.977551
v 13.313219 0.000002 -47.323921
v 12.378155 0.000002 -48.584709
v 11.324015 0.000002 -49.747776
v 10.160949 0.000002 -50.801914
v 8.900162 0.000002 -51.736980
v 7.553791 0.000002 -52.543961
v 6.134805 0.000002 -53.215092
v 4.656872 0.000002 -53.743908
v 3.134222 0.000002 -54.125309
v 1.581518 0.000002 -54.355633
v 0.013717 10.000002 57.921082
v 1.974054 10.000002 57.824768
v 3.915517 10.000002 57.536781
v 5.819406 10.000002 57.059891
v 7.667378 10.000002 56.398666
v 9.441648 10.000002 55.559502
v 11.125112 10.000002 54.550468
v 12.701573 10.000002 53.381287
v 14.155843 10.000002 52.063217
v 15.473920 10.000002 50.608948
v 16.643105 10.000002 49.032486
v 17.652138 10.000002 47.349014
v 18.491302 10.000002 45.574753
v 19.152519 10.000002 43.726776
v 19.629417 10.000002 41.822884
v 19.917412 10.000002 39.881424
v 20.013710 10.000002 37.921082
v 19.917412 10.000002 35.960739
v 19.629417 10.000002 34.019272
v 19.152519 10.000002 32.115387
v 18.491302 10.000002 30.267410
v 17.652138 10.000002 28.493141
v -17.624710 10.000002 28.493141
v -18.463875 10.000002 30.267403
v -19.125092 10.000002 32.115379
v -19.601990 10.000002 34.019272
v -19.889977 10.000002 35.960732
v -19.986290 10.000002 37.921074
v -19.889977 10.000002 39.881416
v -19.601990 10.000002 41.822884
v -19.125092 10.000002 43.726768
v -18.463875 10.000002 45.574745
v -17.624710 10.000002 47.349014
v -16.615677 10.000002 49.032478
v -15.446497 10.000002 50.608940
v -14.128428 10.000002 52.063210
v -12.674159 10.000002 53.381287
v -11.097697 10.000002 54.550468
v -9.414226 10.000002 55.559502
v -7.639956 10.000002 56.398666
v -5.791984 10.000002 57.059883
v -3.888094 10.000002 57.536781
v -1.946631 10.000002 57.824768
v 1.581514 10.000002 53.839233
v 0.013717 10.000002 53.916252
v 3.134218 10.000002 53.608910
v 4.656865 10.000002 53.227509
v 6.134801 10.000002 52.698692
v 7.553784 10.000002 52.027565
v 8.900151 10.000002 51.220581
v 10.160939 10.000002 50.285515
v 11.324010 10.000002 49.231377
v 12.378148 10.000002 48.068314
v 13.313214 10.000002 46.807526
v 14.120198 10.000002 45.461151
v 14.791326 10.000002 44.042168
v 15.320142 10.000002 42.564232
v 15.701543 10.000002 41.041588
v 15.931867 10.000002 39.488884
v 16.008884 10.000002 37.921082
v 15.931867 10.000002 36.353279
v 15.701543 10.000002 34.800575
v 15.320142 10.000002 33.277924
v 14.791326 10.000002 31.799988
v 14.120198 10.000002 30.381004
v -14.092776 10.000002 30.381004
v -14.763903 10.000002 31.799988
v -15.292719 10.000002 33.277924
v -15.674120 10.000002 34.800568
v -15.904444 10.000002 36.353271
v -15.981462 10.000002 37.921074
v -15.904444 10.000002 39.488876
v -15.674120 10.000002 41.041580
v -15.292719 10.000002 42.564232
v -14.763903 10.000002 44.042168
v -14.092776 10.000002 45.461151
v -13.285792 10.000002 46.807518
v -12.350726 10.000002 48.068306
v -11.296588 10.000002 49.231377
v -10.133525 10.000002 50.285515
v -8.872737 10.000002 51.220581
v -7.526362 10.000002 52.027557
v -6.107375 10.000002 52.698692
v -4.629443 10.000002 53.227509
v -3.106795 10.000002 53.608910
v -1.554091 10.000002 53.839233
v 17.652138 10.000002 28.493141
v 14.120198 10.000002 30.381004
v 7.522379 2.209035 -18.553747
v 12.980468 0.000002 -28.765114
v 8.299372 1.637295 -20.007399
v 9.216164 1.104518 -21.722595
v 10.210277 0.647013 -23.582451
v 11.213964 0.295956 -25.460217
v 12.158824 0.075273 -27.227924
v 16.512405 0.000002 -26.877251
v 11.054317 2.209035 -16.665886
v 15.690763 0.075273 -25.340063
v 14.745901 0.295956 -23.572353
v 13.742215 0.647013 -21.694590
v 12.748102 1.104519 -19.834736
v 11.831309 1.637295 -18.119537
v 4.409391 7.790969 -4.234108
v -1.048698 10.000002 5.977257
v 3.632398 8.362708 -2.780457
v 2.715605 8.895485 -1.065258
v 1.721493 9.352990 0.794594
v 0.717807 9.704046 2.672359
v -0.227055 9.924730 4.440071
v -4.580635 10.000002 4.089397
v 0.877454 7.790969 -6.121967
v -3.758991 9.924730 2.552212
v -2.814130 9.704046 0.784500
v -1.810443 9.352990 -1.093266
v -0.816331 8.895485 -2.953117
v 0.100461 8.362708 -4.668316
v 0.877454 2.209035 5.605568
v -4.580634 0.000002 -4.605797
v 0.100461 1.637295 4.151917
v -0.816332 1.104518 2.436718
v -1.810443 0.647013 0.576866
v -2.814130 0.295956 -1.300900
v -3.758991 0.075273 -3.068611
v -1.048696 0.000002 -6.493658
v 4.409392 2.209035 3.717709
v -0.227051 0.075273 -4.956467
v 0.717809 0.295956 -3.188759
v 1.721495 0.647013 -1.310993
v 2.715608 1.104519 0.548862
v 3.632399 1.637295 2.264057
v 12.980464 10.000002 28.248711
v 7.522378 7.790969 18.037346
v 12.158821 9.924730 26.711525
v 11.213961 9.704046 24.943813
v 10.210274 9.352990 23.066048
v 9.216163 8.895485 21.206196
v 8.299371 8.362708 19.490997
v 11.054316 7.790969 16.149487
v 16.512405 10.000002 26.360855
v 11.831310 8.362708 17.603142
v 12.748103 8.895485 19.318340
v 13.742216 9.352990 21.178196
v 14.745902 9.704046 23.055962
v 15.690762 9.924730 24.823669
v -1.740544 0.000002 -56.248760
v 0.013715 0.000002 -56.334946
v -3.477906 0.000002 -55.991047
v -5.181642 0.000002 -55.564285
v -6.835347 0.000002 -54.972584
v -8.423091 0.000002 -54.221630
v -9.929584 0.000002 -53.318680
v -11.340316 0.000002 -52.272408
v -12.641705 0.000002 -51.092899
v -13.821213 0.000002 -49.791512
v -14.867485 0.000002 -48.380775
v -15.770439 0.000002 -46.874283
v -16.521387 0.000002 -45.286541
v -17.113092 0.000002 -43.632839
v -17.539856 0.000002 -41.929100
v -17.797569 0.000002 -40.191738
v -17.883751 0.000002 -38.437477
v -17.797567 0.000002 -36.683216
v -17.539856 0.000002 -34.945854
v -17.113091 0.000002 -33.242115
v -16.521387 0.000002 -31.588415
v -15.790405 0.000002 -30.042885
v 16.548820 0.000002 -31.588415
v 15.817839 0.000002 -30.042885
v 17.140526 0.000002 -33.242115
v 17.567289 0.000002 -34.945854
v 17.825003 0.000002 -36.683216
v 17.911184 0.000002 -38.437477
v 17.825003 0.000002 -40.191738
v 17.567289 0.000002 -41.929100
v 17.140526 0.000002 -43.632839
v 16.548820 0.000002 -45.286541
v 15.797873 0.000002 -46.874283
v 14.894917 0.000002 -48.380775
v 13.848646 0.000002 -49.791508
v 12.669138 0.000002 -51.092899
v 11.367749 0.000002 -52.272404
v 9.957018 0.000002 -53.318680
v 8.450523 0.000002 -54.221634
v 6.862782 0.000002 -54.972580
v 5.209078 0.000002 -55.564289
v 3.505340 0.000002 -55.991047
v 1.767977 0.000002 -56.248764
v -1.760170 0.000002 -56.448040
v 0.013717 0.000002 -56.535187
v -3.516972 0.000002 -56.187447
v -5.239770 0.000002 -55.755905
v -6.911976 0.000002 -55.157581
v -8.517484 0.000002 -54.398232
v -10.040832 0.000002 -53.485172
v -11.467348 0.000002 -52.427197
v -12.783296 0.000002 -51.234489
v -13.976000 0.000002 -49.918541
v -15.033978 0.000002 -48.492027
v -15.947035 0.000002 -46.968678
v -16.706385 0.000002 -45.363171
v -17.304710 0.000002 -43.690968
v -17.736248 0.000002 -41.968166
v -17.996845 0.000002 -40.211361
v -18.083990 0.000002 -38.437477
v -17.996845 0.000002 -36.663593
v -17.736248 0.000002 -34.906788
v -17.304710 0.000002 -33.183987
v -16.706385 0.000002 -31.511784
v -15.927069 0.000002 -29.864061
v 16.733822 0.000002 -31.511784
v 15.954505 0.000002 -29.864063
v 17.332146 0.000002 -33.183987
v 17.763683 0.000002 -34.906788
v 18.024281 0.000002 -36.663593
v 18.111425 0.000002 -38.437477
v 18.024281 0.000002 -40.211361
v 17.763683 0.000002 -41.968166
v 17.332146 0.000002 -43.690968
v 16.733822 0.000002 -45.363171
v 15.974471 0.000002 -46.968674
v 15.061411 0.000002 -48.492027
v 14.003434 0.000002 -49.918541
v 12.810729 0.000002 -51.234489
v 11.494781 0.000002 -52.427197
v 10.068265 0.000002 -53.485172
v 8.544917 0.000002 -54.398232
v 6.939409 0.000002 -55.157581
v 5.267204 0.000002 -55.755905
v 3.544406 0.000002 -56.187447
v 1.787603 0.000002 -56.448040
v 0.013717 10.000002 55.818542
v 1.767971 10.000002 55.732365
v 3.505336 10.000002 55.474648
v 5.209071 10.000002 55.047890
v 6.862777 10.000002 54.456181
v 8.450519 10.000002 53.705235
v 9.957009 10.000002 52.802277
v 11.367738 10.000002 51.756008
v 12.669131 10.000002 50.576504
v 13.848639 10.000002 49.275116
v 14.894912 10.000002 47.864384
v 15.797871 10.000002 46.357883
v 16.548813 10.000002 44.770142
v 17.140522 10.000002 43.116440
v 17.567284 10.000002 41.412708
v 17.824999 10.000002 39.675343
v 17.911177 10.000002 37.921082
v 17.824999 10.000002 36.166821
v 17.567284 10.000002 34.429459
v 17.140522 10.000002 32.725719
v 16.548813 10.000002 31.072012
v 15.817837 10.000002 29.526487
v -15.790415 10.000002 29.526487
v -16.521391 10.000002 31.072012
v -17.113098 10.000002 32.725716
v -17.539860 10.000002 34.429447
v -17.797575 10.000002 36.166813
v -17.883753 10.000002 37.921074
v -17.797575 10.000002 39.675335
v -17.539860 10.000002 41.412697
v -17.113098 10.000002 43.116436
v -16.521391 10.000002 44.770142
v -15.770447 10.000002 46.357883
v -14.867489 10.000002 47.864376
v -13.821218 10.000002 49.275105
v -12.641713 10.000002 50.576496
v -11.340326 10.000002 51.756004
v -9.929590 10.000002 52.802280
v -8.423094 10.000002 53.705231
v -6.835355 10.000002 54.456181
v -5.181650 10.000002 55.047890
v -3.477913 10.000002 55.474648
v -1.740548 10.000002 55.732365
v 1.787594 10.000002 55.931637
v 0.013717 10.000002 56.018791
v 3.544404 10.000002 55.671040
v 5.267200 10.000002 55.239510
v 6.939400 10.000002 54.641178
v 8.544912 10.000002 53.881832
v 10.068254 10.000002 52.968773
v 11.494774 10.000002 51.910793
v 12.810721 10.000002 50.718094
v 14.003429 10.000002 49.402145
v 15.061406 10.000002 47.975628
v 15.974467 10.000002 46.452278
v 16.733814 10.000002 44.846775
v 17.332140 10.000002 43.174572
v 17.763680 10.000002 41.451763
v 18.024281 10.000002 39.694969
v 18.111420 10.000002 37.921082
v 18.024281 10.000002 36.147194
v 17.763678 10.000002 34.390392
v 17.332140 10.000002 32.667591
v 16.733814 10.000002 30.995384
v 15.954500 10.000002 29.347660
v -16.706387 10.000002 30.995378
v -15.927073 10.000002 29.347660
v -17.304712 10.000002 32.667583
v -17.736250 10.000002 34.390388
v -17.996845 10.000002 36.147190
v -18.083998 10.000002 37.921074
v -17.996845 10.000002 39.694958
v -17.736250 10.000002 41.451767
v -17.304712 10.000002 43.174564
v -16.706387 10.000002 44.846771
v -15.947039 10.000002 46.452278
v -15.033979 10.000002 47.975620
v -13.976004 10.000002 49.402142
v -12.783303 10.000002 50.718090
v -11.467358 10.000002 51.910797
v -10.040842 10.000002 52.968769
v -8.517492 10.000002 53.881828
v -6.911982 10.000002 54.641178
v -5.239778 10.000002 55.239502
v -3.516977 10.000002 55.671043
v -1.760171 10.000002 55.931637
v -2.724347 0.000002 -5.598004
v -2.904984 0.000002 -5.501451
v 9.975022 1.637295 -19.111744
v 9.198030 2.209035 -17.658092
v 9.378666 2.209035 -17.561541
v 10.155659 1.637295 -19.015192
v 10.891814 1.104518 -20.826942
v 11.072452 1.104518 -20.730391
v 11.885927 0.647013 -22.686798
v 12.066565 0.647013 -22.590244
v 12.889614 0.295956 -24.564562
v 13.070251 0.295956 -24.468008
v 13.834475 0.075273 -26.332272
v 14.015112 0.075273 -26.235718
v 14.656118 0.000002 -27.869461
v 14.836756 0.000002 -27.772905
v -2.083341 9.924730 3.447866
v -2.904984 10.000002 4.985052
v -2.724348 10.000002 5.081603
v -1.902706 9.924730 3.544417
v -1.138479 9.704046 1.680154
v -0.957844 9.704046 1.776706
v -0.134793 9.352990 -0.197612
v 0.045843 9.352990 -0.101060
v 0.859319 8.895485 -2.057463
v 1.039955 8.895485 -1.960912
v 1.776112 8.362708 -3.772662
v 1.956748 8.362708 -3.676111
v 2.553104 7.790969 -5.226314
v 2.733741 7.790969 -5.129762
v 1.776111 1.637295 3.256263
v 2.553104 2.209035 4.709914
v 2.733742 2.209035 4.613362
v 1.956748 1.637295 3.159711
v 0.859319 1.104518 1.541064
v 1.039958 1.104519 1.444516
v -0.134793 0.647013 -0.318788
v 0.045845 0.647013 -0.415340
v -1.138479 0.295956 -2.196553
v -0.957842 0.295956 -2.293105
v -2.083340 0.075273 -3.964265
v -1.902701 0.075273 -4.060813
v 13.834472 9.924730 25.815872
v 14.656115 10.000002 27.353058
v 14.836754 10.000002 27.256510
v 14.015111 9.924730 25.719322
v 12.889611 9.704045 24.048161
v 13.070251 9.704047 23.951614
v 11.885924 9.352989 22.170395
v 12.066566 9.352991 22.073849
v 10.891813 8.895484 20.310543
v 11.072453 8.895486 20.213993
v 9.975021 8.362708 18.595345
v 10.155660 8.362709 18.498795
v 9.198029 7.790968 17.141693
v 9.378665 7.790969 17.045139
vn -0.0000 1.0000 -0.0000
vn 0.1641 0.9375 -0.3069
vn 0.0102 0.9998 -0.0190
vn 0.1396 0.9551 -0.2612
vn 0.1123 0.9712 -0.2101
vn 0.0883 0.9823 -0.1653
vn 0.0642 0.9907 -0.1200
vn 0.0360 0.9971 -0.0673
vn -0.1641 0.9375 -0.3069
vn -0.0102 0.9998 -0.0190
vn -0.1396 0.9551 -0.2612
vn -0.1123 0.9712 -0.2101
vn -0.0883 0.9823 -0.1653
vn -0.0642 0.9907 -0.1200
vn -0.0360 0.9971 -0.0673
vt 0.000000 0.000000
s 1
usemtl road
f 231/1/1 45/1/1 232/1/1
f 231/1/1 46/1/1 44/1/1
f 234/1/1 46/1/1 233/1/1
f 234/1/1 48/1/1 47/1/1
f 236/1/1 48/1/1 235/1/1
f 236/1/1 50/1/1 49/1/1
f 238/1/1 50/1/1 237/1/1
f 238/1/1 52/1/1 51/1/1
f 240/1/1 52/1/1 239/1/1
f 240/1/1 54/1/1 53/1/1
f 242/1/1 54/1/1 241/1/1
f 242/1/1 56/1/1 55/1/1
f 244/1/1 56/1/1 243/1/1
f 245/1/1 57/1/1 244/1/1
f 245/1/1 59/1/1 58/1/1
f 247/1/1 59/1/1 246/1/1
f 248/1/1 60/1/1 247/1/1
f 248/1/1 62/1/1 61/1/1
f 250/1/1 62/1/1 249/1/1
f 250/1/1 64/1/1 63/1/1
f 252/1/1 64/1/1 251/1/1
f 254/1/1 67/1/1 66/1/1
f 253/1/1 68/1/1 67/1/1
f 256/1/1 68/1/1 255/1/1
f 256/1/1 70/1/1 69/1/1
f 258/1/1 70/1/1 257/1/1
f 259/1/1 71/1/1 258/1/1
f 260/1/1 72/1/1 259/1/1
f 261/1/1 73/1/1 260/1/1
f 261/1/1 75/1/1 74/1/1
f 263/1/1 75/1/1 262/1/1
f 264/1/1 76/1/1 263/1/1
f 265/1/1 77/1/1 264/1/1
f 265/1/1 79/1/1 78/1/1
f 267/1/1 79/1/1 266/1/1
f 267/1/1 81/1/1 80/1/1
f 269/1/1 81/1/1 268/1/1
f 269/1/1 83/1/1 82/1/1
f 270/1/1 84/1/1 83/1/1
f 272/1/1 84/1/1 271/1/1
f 272/1/1 86/1/1 85/1/1
f 273/1/1 45/1/1 86/1/1
f 275/1/1 2/1/1 274/1/1
f 276/1/1 2/1/1 3/1/1
f 276/1/1 4/1/1 277/1/1
f 278/1/1 4/1/1 5/1/1
f 278/1/1 6/1/1 279/1/1
f 280/1/1 6/1/1 7/1/1
f 280/1/1 8/1/1 281/1/1
f 281/1/1 9/1/1 282/1/1
f 282/1/1 10/1/1 283/1/1
f 284/1/1 10/1/1 11/1/1
f 284/1/1 12/1/1 285/1/1
f 286/1/1 12/1/1 13/1/1
f 287/1/1 13/1/1 14/1/1
f 287/1/1 15/1/1 288/1/1
f 288/1/1 16/1/1 289/1/1
f 289/1/1 17/1/1 290/1/1
f 291/1/1 17/1/1 18/1/1
f 291/1/1 19/1/1 292/1/1
f 292/1/1 20/1/1 293/1/1
f 293/1/1 21/1/1 294/1/1
f 294/1/1 22/1/1 295/1/1
f 296/1/1 23/1/1 24/1/1
f 298/1/1 24/1/1 25/1/1
f 298/1/1 26/1/1 299/1/1
f 299/1/1 27/1/1 300/1/1
f 300/1/1 28/1/1 301/1/1
f 302/1/1 28/1/1 29/1/1
f 302/1/1 30/1/1 303/1/1
f 303/1/1 31/1/1 304/1/1
f 304/1/1 32/1/1 305/1/1
f 305/1/1 33/1/1 306/1/1
f 307/1/1 33/1/1 34/1/1
f 307/1/1 35/1/1 308/1/1
f 309/1/1 35/1/1 36/1/1
f 309/1/1 37/1/1 310/1/1
f 310/1/1 38/1/1 311/1/1
f 311/1/1 39/1/1 312/1/1
f 313/1/1 39/1/1 40/1/1
f 313/1/1 41/1/1 314/1/1
f 315/1/1 41/1/1 42/1/1
f 315/1/1 43/1/1 316/1/1
f 275/1/1 43/1/1 1/1/1
f 317/1/1 130/1/1 131/1/1
f 319/1/1 130/1/1 318/1/1
f 319/1/1 133/1/1 132/1/1
f 321/1/1 133/1/1 320/1/1
f 321/1/1 135/1/1 134/1/1
f 323/1/1 135/1/1 322/1/1
f 324/1/1 136/1/1 323/1/1
f 324/1/1 138/1/1 137/1/1
f 326/1/1 138/1/1 325/1/1
f 326/1/1 140/1/1 139/1/1
f 328/1/1 140/1/1 327/1/1
f 329/1/1 141/1/1 328/1/1
f 329/1/1 143/1/1 142/1/1
f 331/1/1 143/1/1 330/1/1
f 331/1/1 145/1/1 144/1/1
f 333/1/1 145/1/1 332/1/1
f 333/1/1 147/1/1 146/1/1
f 335/1/1 147/1/1 334/1/1
f 335/1/1 149/1/1 148/1/1
f 337/1/1 149/1/1 336/1/1
f 338/1/1 150/1/1 337/1/1
f 339/1/1 153/1/1 152/1/1
f 340/1/1 154/1/1 153/1/1
f 342/1/1 154/1/1 341/1/1
f 342/1/1 156/1/1 155/1/1
f 344/1/1 156/1/1 343/1/1
f 344/1/1 158/1/1 157/1/1
f 346/1/1 158/1/1 345/1/1
f 346/1/1 160/1/1 159/1/1
f 348/1/1 160/1/1 347/1/1
f 348/1/1 162/1/1 161/1/1
f 350/1/1 162/1/1 349/1/1
f 351/1/1 163/1/1 350/1/1
f 351/1/1 165/1/1 164/1/1
f 353/1/1 165/1/1 352/1/1
f 353/1/1 167/1/1 166/1/1
f 355/1/1 167/1/1 354/1/1
f 355/1/1 169/1/1 168/1/1
f 356/1/1 170/1/1 169/1/1
f 358/1/1 170/1/1 357/1/1
f 358/1/1 172/1/1 171/1/1
f 317/1/1 172/1/1 359/1/1
f 361/1/1 88/1/1 360/1/1
f 360/1/1 89/1/1 362/1/1
f 363/1/1 89/1/1 90/1/1
f 363/1/1 91/1/1 364/1/1
f 365/1/1 91/1/1 92/1/1
f 365/1/1 93/1/1 366/1/1
f 366/1/1 94/1/1 367/1/1
f 368/1/1 94/1/1 95/1/1
f 369/1/1 95/1/1 96/1/1
f 369/1/1 97/1/1 370/1/1
f 370/1/1 98/1/1 371/1/1
f 371/1/1 99/1/1 372/1/1
f 373/1/1 99/1/1 100/1/1
f 373/1/1 101/1/1 374/1/1
f 375/1/1 101/1/1 102/1/1
f 375/1/1 103/1/1 376/1/1
f 377/1/1 103/1/1 104/1/1
f 377/1/1 105/1/1 378/1/1
f 379/1/1 105/1/1 106/1/1
f 379/1/1 107/1/1 380/1/1
f 380/1/1 108/1/1 381/1/1
f 382/1/1 109/1/1 110/1/1
f 384/1/1 110/1/1 111/1/1
f 384/1/1 112/1/1 385/1/1
f 385/1/1 113/1/1 386/1/1
f 387/1/1 113/1/1 114/1/1
f 387/1/1 115/1/1 388/1/1
f 389/1/1 115/1/1 116/1/1
f 389/1/1 117/1/1 390/1/1
f 390/1/1 118/1/1 391/1/1
f 392/1/1 118/1/1 119/1/1
f 392/1/1 120/1/1 393/1/1
f 394/1/1 120/1/1 121/1/1
f 395/1/1 121/1/1 122/1/1
f 395/1/1 123/1/1 396/1/1
f 396/1/1 124/1/1 397/1/1
f 398/1/1 124/1/1 125/1/1
f 399/1/1 125/1/1 126/1/1
f 400/1/1 126/1/1 127/1/1
f 401/1/1 127/1/1 128/1/1
f 401/1/1 129/1/1 402/1/1
f 361/1/1 129/1/1 87/1/1
f 403/1/10 65/1/1 252/1/1
f 295/1/1 204/1/10 404/1/10
f 405/1/4 175/1/2 406/1/2
f 407/1/2 188/1/4 408/1/4
f 409/1/5 177/1/4 405/1/4
f 408/1/4 187/1/5 410/1/5
f 409/1/5 179/1/6 178/1/5
f 410/1/5 186/1/6 412/1/6
f 411/1/6 180/1/7 179/1/6
f 412/1/6 185/1/7 414/1/7
f 415/1/8 180/1/7 413/1/7
f 416/1/8 185/1/7 184/1/8
f 417/1/3 181/1/8 415/1/8
f 416/1/8 182/1/3 418/1/3
f 297/1/1 182/1/3 23/1/1
f 417/1/3 66/1/1 176/1/3
f 419/1/8 196/1/3 420/1/3
f 421/1/3 195/1/8 422/1/8
f 423/1/7 198/1/8 419/1/8
f 422/1/8 194/1/7 424/1/7
f 425/1/6 199/1/7 423/1/7
f 424/1/7 193/1/6 426/1/6
f 425/1/6 201/1/5 200/1/6
f 426/1/6 192/1/5 428/1/5
f 429/1/4 201/1/5 427/1/5
f 428/1/5 191/1/4 430/1/4
f 431/1/2 202/1/4 429/1/4
f 430/1/4 189/1/2 432/1/2
f 432/1/2 183/1/2 407/1/2
f 406/1/2 197/1/2 431/1/2
f 421/1/3 152/1/1 190/1/3
f 383/1/1 196/1/3 109/1/1
f 433/1/11 203/1/9 434/1/9
f 435/1/9 216/1/11 436/1/11
f 437/1/12 205/1/11 433/1/11
f 436/1/11 215/1/12 438/1/12
f 439/1/13 206/1/12 437/1/12
f 438/1/12 214/1/13 440/1/13
f 441/1/14 207/1/13 439/1/13
f 440/1/13 213/1/14 442/1/14
f 441/1/14 209/1/15 208/1/14
f 442/1/14 212/1/15 444/1/15
f 404/1/10 209/1/15 443/1/15
f 403/1/10 212/1/15 210/1/10
f 445/1/15 217/1/10 446/1/10
f 448/1/15 225/1/10 230/1/15
f 449/1/14 219/1/15 445/1/15
f 450/1/14 230/1/15 229/1/14
f 451/1/13 220/1/14 449/1/14
f 452/1/13 229/1/14 228/1/13
f 453/1/12 221/1/13 451/1/13
f 452/1/13 227/1/12 454/1/12
f 453/1/12 223/1/11 222/1/12
f 456/1/11 227/1/12 226/1/11
f 457/1/9 223/1/11 455/1/11
f 456/1/11 224/1/9 458/1/9
f 458/1/9 211/1/9 435/1/9
f 457/1/9 203/1/9 218/1/9
f 381/1/1 225/1/10 447/1/10
f 446/1/10 151/1/1 338/1/1
f 231/1/1 44/1/1 45/1/1
f 231/1/1 233/1/1 46/1/1
f 234/1/1 47/1/1 46/1/1
f 234/1/1 235/1/1 48/1/1
f 236/1/1 49/1/1 48/1/1
f 236/1/1 237/1/1 50/1/1
f 238/1/1 51/1/1 50/1/1
f 238/1/1 239/1/1 52/1/1
f 240/1/1 53/1/1 52/1/1
f 240/1/1 241/1/1 54/1/1
f 242/1/1 55/1/1 54/1/1
f 242/1/1 243/1/1 56/1/1
f 244/1/1 57/1/1 56/1/1
f 245/1/1 58/1/1 57/1/1
f 245/1/1 246/1/1 59/1/1
f 247/1/1 60/1/1 59/1/1
f 248/1/1 61/1/1 60/1/1
f 248/1/1 249/1/1 62/1/1
f 250/1/1 63/1/1 62/1/1
f 250/1/1 251/1/1 64/1/1
f 252/1/1 65/1/1 64/1/1
f 254/1/1 253/1/1 67/1/1
f 253/1/1 255/1/1 68/1/1
f 256/1/1 69/1/1 68/1/1
f 256/1/1 257/1/1 70/1/1
f 258/1/1 71/1/1 70/1/1
f 259/1/1 72/1/1 71/1/1
f 260/1/1 73/1/1 72/1/1
f 261/1/1 74/1/1 73/1/1
f 261/1/1 262/1/1 75/1/1
f 263/1/1 76/1/1 75/1/1
f 264/1/1 77/1/1 76/1/1
f 265/1/1 78/1/1 77/1/1
f 265/1/1 266/1/1 79/1/1
f 267/1/1 80/1/1 79/1/1
f 267/1/1 268/1/1 81/1/1
f 269/1/1 82/1/1 81/1/1
f 269/1/1 270/1/1 83/1/1
f 270/1/1 271/1/1 84/1/1
f 272/1/1 85/1/1 84/1/1
f 272/1/1 273/1/1 86/1/1
f 273/1/1 232/1/1 45/1/1
f 275/1/1 1/1/1 2/1/1
f 276/1/1 274/1/1 2/1/1
f 276/1/1 3/1/1 4/1/1
f 278/1/1 277/1/1 4/1/1
f 278/1/1 5/1/1 6/1/1
f 280/1/1 279/1/1 6/1/1
f 280/1/1 7/1/1 8/1/1
f 281/1/1 8/1/1 9/1/1
f 282/1/1 9/1/1 10/1/1
f 284/1/1 283/1/1 10/1/1
f 284/1/1 11/1/1 12/1/1
f 286/1/1 285/1/1 12/1/1
f 287/1/1 286/1/1 13/1/1
f 287/1/1 14/1/1 15/1/1
f 288/1/1 15/1/1 16/1/1
f 289/1/1 16/1/1 17/1/1
f 291/1/1 290/1/1 17/1/1
f 291/1/1 18/1/1 19/1/1
f 292/1/1 19/1/1 20/1/1
f 293/1/1 20/1/1 21/1/1
f 294/1/1 21/1/1 22/1/1
f 296/1/1 297/1/1 23/1/1
f 298/1/1 296/1/1 24/1/1
f 298/1/1 25/1/1 26/1/1
f 299/1/1 26/1/1 27/1/1
f 300/1/1 27/1/1 28/1/1
f 302/1/1 301/1/1 28/1/1
f 302/1/1 29/1/1 30/1/1
f 303/1/1 30/1/1 31/1/1
f 304/1/1 31/1/1 32/1/1
f 305/1/1 32/1/1 33/1/1
f 307/1/1 306/1/1 33/1/1
f 307/1/1 34/1/1 35/1/1
f 309/1/1 308/1/1 35/1/1
f 309/1/1 36/1/1 37/1/1
f 310/1/1 37/1/1 38/1/1
f 311/1/1 38/1/1 39/1/1
f 313/1/1 312/1/1 39/1/1
f 313/1/1 40/1/1 41/1/1
f 315/1/1 314/1/1 41/1/1
f 315/1/1 42/1/1 43/1/1
f 275/1/1 316/1/1 43/1/1
f 317/1/1 318/1/1 130/1/1
f 319/1/1 132/1/1 130/1/1
f 319/1/1 320/1/1 133/1/1
f 321/1/1 134/1/1 133/1/1
f 321/1/1 322/1/1 135/1/1
f 323/1/1 136/1/1 135/1/1
f 324/1/1 137/1/1 136/1/1
f 324/1/1 325/1/1 138/1/1
f 326/1/1 139/1/1 138/1/1
f 326/1/1 327/1/1 140/1/1
f 328/1/1 141/1/1 140/1/1
f 329/1/1 142/1/1 141/1/1
f 329/1/1 330/1/1 143/1/1
f 331/1/1 144/1/1 143/1/1
f 331/1/1 332/1/1 145/1/1
f 333/1/1 146/1/1 145/1/1
f 333/1/1 334/1/1 147/1/1
f 335/1/1 148/1/1 147/1/1
f 335/1/1 336/1/1 149/1/1
f 337/1/1 150/1/1 149/1/1
f 338/1/1 151/1/1 150/1/1
f 339/1/1 340/1/1 153/1/1
f 340/1/1 341/1/1 154/1/1
f 342/1/1 155/1/1 154/1/1
f 342/1/1 343/1/1 156/1/1
f 344/1/1 157/1/1 156/1/1
f 344/1/1 345/1/1 158/1/1
f 346/1/1 159/1/1 158/1/1
f 346/1/1 347/1/1 160/1/1
f 348/1/1 161/1/1 160/1/1
f 348/1/1 349/1/1 162/1/1
f 350/1/1 163/1/1 162/1/1
f 351/1/1 164/1/1 163/1/1
f 351/1/1 352/1/1 165/1/1
f 353/1/1 166/1/1 165/1/1
f 353/1/1 354/1/1 167/1/1
f 355/1/1 168/1/1 167/1/1
f 355/1/1 356/1/1 169/1/1
f 356/1/1 357/1/1 170/1/1
f 358/1/1 171/1/1 170/1/1
f 358/1/1 359/1/1 172/1/1
f 317/1/1 131/1/1 172/1/1
f 361/1/1 87/1/1 88/1/1
f 360/1/1 88/1/1 89/1/1
f 363/1/1 362/1/1 89/1/1
f 363/1/1 90/1/1 91/1/1
f 365/1/1 364/1/1 91/1/1
f 365/1/1 92/1/1 93/1/1
f 366/1/1 93/1/1 94/1/1
f 368/1/1 367/1/1 94/1/1
f 369/1/1 368/1/1 95/1/1
f 369/1/1 96/1/1 97/1/1
f 370/1/1 97/1/1 98/1/1
f 371/1/1 98/1/1 99/1/1
f 373/1/1 372/1/1 99/1/1
f 373/1/1 100/1/1 101/1/1
f 375/1/1 374/1/1 101/1/1
f 375/1/1 102/1/1 103/1/1
f 377/1/1 376/1/1 103/1/1
f 377/1/1 104/1/1 105/1/1
f 379/1/1 378/1/1 105/1/1
f 379/1/1 106/1/1 107/1/1
f 380/1/1 107/1/1 108/1/1
f 382/1/1 383/1/1 109/1/1
f 384/1/1 382/1/1 110/1/1
f 384/1/1 111/1/1 112/1/1
f 385/1/1 112/1/1 113/1/1
f 387/1/1 386/1/1 113/1/1
f 387/1/1 114/1/1 115/1/1
f 389/1/1 388/1/1 115/1/1
f 389/1/1 116/1/1 117/1/1
f 390/1/1 117/1/1 118/1/1
f 392/1/1 391/1/1 118/1/1
f 392/1/1 119/1/1 120/1/1
f 394/1/1 393/1/1 120/1/1
f 395/1/1 394/1/1 121/1/1
f 395/1/1 122/1/1 123/1/1
f 396/1/1 123/1/1 124/1/1
f 398/1/1 397/1/1 124/1/1
f 399/1/1 398/1/1 125/1/1
f 400/1/1 399/1/1 126/1/1
f 401/1/1 400/1/1 127/1/1
f 401/1/1 128/1/1 129/1/1
f 361/1/1 402/1/1 129/1/1
f 403/1/10 210/1/10 65/1/1
f 295/1/1 22/1/1 204/1/10
f 405/1/4 177/1/4 175/1/2
f 407/1/2 183/1/2 188/1/4
f 409/1/5 178/1/5 177/1/4
f 408/1/4 188/1/4 187/1/5
f 409/1/5 411/1/6 179/1/6
f 410/1/5 187/1/5 186/1/6
f 411/1/6 413/1/7 180/1/7
f 412/1/6 186/1/6 185/1/7
f 415/1/8 181/1/8 180/1/7
f 416/1/8 414/1/7 185/1/7
f 417/1/3 176/1/3 181/1/8
f 416/1/8 184/1/8 182/1/3
f 297/1/1 418/1/3 182/1/3
f 417/1/3 254/1/1 66/1/1
f 419/1/8 198/1/8 196/1/3
f 421/1/3 190/1/3 195/1/8
f 423/1/7 199/1/7 198/1/8
f 422/1/8 195/1/8 194/1/7
f 425/1/6 200/1/6 199/1/7
f 424/1/7 194/1/7 193/1/6
f 425/1/6 427/1/5 201/1/5
f 426/1/6 193/1/6 192/1/5
f 429/1/4 202/1/4 201/1/5
f 428/1/5 192/1/5 191/1/4
f 431/1/2 197/1/2 202/1/4
f 430/1/4 191/1/4 189/1/2
f 432/1/2 189/1/2 183/1/2
f 406/1/2 175/1/2 197/1/2
f 421/1/3 339/1/1 152/1/1
f 383/1/1 420/1/3 196/1/3
f 433/1/11 205/1/11 203/1/9
f 435/1/9 211/1/9 216/1/11
f 437/1/12 206/1/12 205/1/11
f 436/1/11 216/1/11 215/1/12
f 439/1/13 207/1/13 206/1/12
f 438/1/12 215/1/12 214/1/13
f 441/1/14 208/1/14 207/1/13
f 440/1/13 214/1/13 213/1/14
f 441/1/14 443/1/15 209/1/15
f 442/1/14 213/1/14 212/1/15
f 404/1/10 204/1/10 209/1/15
f 403/1/10 444/1/15 212/1/15
f 445/1/15 219/1/15 217/1/10
f 448/1/15 447/1/10 225/1/10
f 449/1/14 220/1/14 219/1/15
f 450/1/14 448/1/15 230/1/15
f 451/1/13 221/1/13 220/1/14
f 452/1/13 450/1/14 229/1/14
f 453/1/12 222/1/12 221/1/13
f 452/1/13 228/1/13 227/1/12
f 453/1/12 455/1/11 223/1/11
f 456/1/11 454/1/12 227/1/12
f 457/1/9 218/1/9 223/1/11
f 456/1/11 226/1/11 224/1/9
f 458/1/9 224/1/9 211/1/9
f 457/1/9 434/1/9 203/1/9
f 381/1/1 108/1/1 225/1/10
f 446/1/10 217/1/10 151/1/1
usemtl line
f 232/1/1 274/1/1 231/1/1
f 231/1/1 276/1/1 233/1/1
f 234/1/1 276/1/1 277/1/1
f 235/1/1 277/1/1 278/1/1
f 235/1/1 279/1/1 236/1/1
f 236/1/1 280/1/1 237/1/1
f 238/1/1 280/1/1 281/1/1
f 239/1/1 281/1/1 282/1/1
f 240/1/1 282/1/1 283/1/1
f 240/1/1 284/1/1 241/1/1
f 241/1/1 285/1/1 242/1/1
f 242/1/1 286/1/1 243/1/1
f 243/1/1 287/1/1 244/1/1
f 244/1/1 288/1/1 245/1/1
f 246/1/1 288/1/1 289/1/1
f 247/1/1 289/1/1 290/1/1
f 247/1/1 291/1/1 248/1/1
f 248/1/1 292/1/1 249/1/1
f 250/1/1 292/1/1 293/1/1
f 251/1/1 293/1/1 294/1/1
f 252/1/1 294/1/1 295/1/1
f 254/1/1 296/1/1 253/1/1
f 253/1/1 298/1/1 255/1/1
f 255/1/1 299/1/1 256/1/1
f 257/1/1 299/1/1 300/1/1
f 258/1/1 300/1/1 301/1/1
f 258/1/1 302/1/1 259/1/1
f 259/1/1 303/1/1 260/1/1
f 261/1/1 303/1/1 304/1/1
f 262/1/1 304/1/1 305/1/1
f 262/1/1 306/1/1 263/1/1
f 264/1/1 306/1/1 307/1/1
f 265/1/1 307/1/1 308/1/1
f 266/1/1 308/1/1 309/1/1
f 267/1/1 309/1/1 310/1/1
f 268/1/1 310/1/1 311/1/1
f 268/1/1 312/1/1 269/1/1
f 270/1/1 312/1/1 313/1/1
f 271/1/1 313/1/1 314/1/1
f 271/1/1 315/1/1 272/1/1
f 273/1/1 315/1/1 316/1/1
f 273/1/1 275/1/1 232/1/1
f 317/1/1 360/1/1 318/1/1
f 318/1/1 362/1/1 319/1/1
f 320/1/1 362/1/1 363/1/1
f 320/1/1 364/1/1 321/1/1
f 321/1/1 365/1/1 322/1/1
f 322/1/1 366/1/1 323/1/1
f 324/1/1 366/1/1 367/1/1
f 325/1/1 367/1/1 368/1/1
f 326/1/1 368/1/1 369/1/1
f 327/1/1 369/1/1 370/1/1
f 328/1/1 370/1/1 371/1/1
f 328/1/1 372/1/1 329/1/1
f 329/1/1 373/1/1 330/1/1
f 331/1/1 373/1/1 374/1/1
f 332/1/1 374/1/1 375/1/1
f 332/1/1 376/1/1 333/1/1
f 334/1/1 376/1/1 377/1/1
f 334/1/1 378/1/1 335/1/1
f 336/1/1 378/1/1 379/1/1
f 336/1/1 380/1/1 337/1/1
f 380/1/1 338/1/1 337/1/1
f 339/1/1 382/1/1 340/1/1
f 340/1/1 384/1/1 341/1/1
f 341/1/1 385/1/1 342/1/1
f 343/1/1 385/1/1 386/1/1
f 344/1/1 386/1/1 387/1/1
f 344/1/1 388/1/1 345/1/1
f 346/1/1 388/1/1 389/1/1
f 347/1/1 389/1/1 390/1/1
f 348/1/1 390/1/1 391/1/1
f 349/1/1 391/1/1 392/1/1
f 350/1/1 392/1/1 393/1/1
f 351/1/1 393/1/1 394/1/1
f 352/1/1 394/1/1 395/1/1
f 353/1/1 395/1/1 396/1/1
f 353/1/1 397/1/1 354/1/1
f 354/1/1 398/1/1 355/1/1
f 355/1/1 399/1/1 356/1/1
f 356/1/1 400/1/1 357/1/1
f 357/1/1 401/1/1 358/1/1
f 359/1/1 401/1/1 402/1/1
f 317/1/1 402/1/1 361/1/1
f 446/1/10 381/1/1 447/1/10
f 297/1/1 417/1/3 418/1/3
f 295/1/1 403/1/10 252/1/1
f 406/1/2 408/1/4 405/1/4
f 408/1/4 409/1/5 405/1/4
f 409/1/5 412/1/6 411/1/6
f 411/1/6 414/1/7 413/1/7
f 413/1/7 416/1/8 415/1/8
f 415/1/8 418/1/3 417/1/3
f 421/1/3 383/1/1 339/1/1
f 421/1/3 419/1/8 420/1/3
f 419/1/8 424/1/7 423/1/7
f 424/1/7 425/1/6 423/1/7
f 426/1/6 427/1/5 425/1/6
f 428/1/5 429/1/4 427/1/5
f 430/1/4 431/1/2 429/1/4
f 407/1/2 431/1/2 432/1/2
f 434/1/9 436/1/11 433/1/11
f 433/1/11 438/1/12 437/1/12
f 437/1/12 440/1/13 439/1/13
f 439/1/13 442/1/14 441/1/14
f 441/1/14 444/1/15 443/1/15
f 443/1/15 403/1/10 404/1/10
f 446/1/10 448/1/15 445/1/15
f 445/1/15 450/1/14 449/1/14
f 449/1/14 452/1/13 451/1/13
f 451/1/13 454/1/12 453/1/12
f 453/1/12 456/1/11 455/1/11
f 455/1/11 458/1/9 457/1/9
f 435/1/9 457/1/9 458/1/9
f 232/1/1 275/1/1 274/1/1
f 231/1/1 274/1/1 276/1/1
f 234/1/1 233/1/1 276/1/1
f 235/1/1 234/1/1 277/1/1
f 235/1/1 278/1/1 279/1/1
f 236/1/1 279/1/1 280/1/1
f 238/1/1 237/1/1 280/1/1
f 239/1/1 238/1/1 281/1/1
f 240/1/1 239/1/1 282/1/1
f 240/1/1 283/1/1 284/1/1
f 241/1/1 284/1/1 285/1/1
f 242/1/1 285/1/1 286/1/1
f 243/1/1 286/1/1 287/1/1
f 244/1/1 287/1/1 288/1/1
f 246/1/1 245/1/1 288/1/1
f 247/1/1 246/1/1 289/1/1
f 247/1/1 290/1/1 291/1/1
f 248/1/1 291/1/1 292/1/1
f 250/1/1 249/1/1 292/1/1
f 251/1/1 250/1/1 293/1/1
f 252/1/1 251/1/1 294/1/1
f 254/1/1 297/1/1 296/1/1
f 253/1/1 296/1/1 298/1/1
f 255/1/1 298/1/1 299/1/1
f 257/1/1 256/1/1 299/1/1
f 258/1/1 257/1/1 300/1/1
f 258/1/1 301/1/1 302/1/1
f 259/1/1 302/1/1 303/1/1
f 261/1/1 260/1/1 303/1/1
f 262/1/1 261/1/1 304/1/1
f 262/1/1 305/1/1 306/1/1
f 264/1/1 263/1/1 306/1/1
f 265/1/1 264/1/1 307/1/1
f 266/1/1 265/1/1 308/1/1
f 267/1/1 266/1/1 309/1/1
f 268/1/1 267/1/1 310/1/1
f 268/1/1 311/1/1 312/1/1
f 270/1/1 269/1/1 312/1/1
f 271/1/1 270/1/1 313/1/1
f 271/1/1 314/1/1 315/1/1
f 273/1/1 272/1/1 315/1/1
f 273/1/1 316/1/1 275/1/1
f 317/1/1 361/1/1 360/1/1
f 318/1/1 360/1/1 362/1/1
f 320/1/1 319/1/1 362/1/1
f 320/1/1 363/1/1 364/1/1
f 321/1/1 364/1/1 365/1/1
f 322/1/1 365/1/1 366/1/1
f 324/1/1 323/1/1 366/1/1
f 325/1/1 324/1/1 367/1/1
f 326/1/1 325/1/1 368/1/1
f 327/1/1 326/1/1 369/1/1
f 328/1/1 327/1/1 370/1/1
f 328/1/1 371/1/1 372/1/1
f 329/1/1 372/1/1 373/1/1
f 331/1/1 330/1/1 373/1/1
f 332/1/1 331/1/1 374/1/1
f 332/1/1 375/1/1 376/1/1
f 334/1/1 333/1/1 376/1/1
f 334/1/1 377/1/1 378/1/1
f 336/1/1 335/1/1 378/1/1
f 336/1/1 379/1/1 380/1/1
f 380/1/1 381/1/1 338/1/1
f 339/1/1 383/1/1 382/1/1
f 340/1/1 382/1/1 384/1/1
f 341/1/1 384/1/1 385/1/1
f 343/1/1 342/1/1 385/1/1
f 344/1/1 343/1/1 386/1/1
f 344/1/1 387/1/1 388/1/1
f 346/1/1 345/1/1 388/1/1
f 347/1/1 346/1/1 389/1/1
f 348/1/1 347/1/1 390/1/1
f 349/1/1 348/1/1 391/1/1
f 350/1/1 349/1/1 392/1/1
f 351/1/1 350/1/1 393/1/1
f 352/1/1 351/1/1 394/1/1
f 353/1/1 352/1/1 395/1/1
f 353/1/1 396/1/1 397/1/1
f 354/1/1 397/1/1 398/1/1
f 355/1/1 398/1/1 399/1/1
f 356/1/1 399/1/1 400/1/1
f 357/1/1 400/1/1 401/1/1
f 359/1/1 358/1/1 401/1/1
f 317/1/1 359/1/1 402/1/1
f 446/1/10 338/1/1 381/1/1
f 297/1/1 254/1/1 417/1/3
f 295/1/1 404/1/10 403/1/10
f 406/1/2 407/1/2 408/1/4
f 408/1/4 410/1/5 409/1/5
f 409/1/5 410/1/5 412/1/6
f 411/1/6 412/1/6 414/1/7
f 413/1/7 414/1/7 416/1/8
f 415/1/8 416/1/8 418/1/3
f 421/1/3 420/1/3 383/1/1
f 421/1/3 422/1/8 419/1/8
f 419/1/8 422/1/8 424/1/7
f 424/1/7 426/1/6 425/1/6
f 426/1/6 428/1/5 427/1/5
f 428/1/5 430/1/4 429/1/4
f 430/1/4 432/1/2 431/1/2
f 407/1/2 406/1/2 431/1/2
f 434/1/9 435/1/9 436/1/11
f 433/1/11 436/1/11 438/1/12
f 437/1/12 438/1/12 440/1/13
f 439/1/13 440/1/13 442/1/14
f 441/1/14 442/1/14 444/1/15
f 443/1/15 444/1/15 403/1/10
f 446/1/10 447/1/10 448/1/15
f 445/1/15 448/1/15 450/1/14
f 449/1/14 450/1/14 452/1/13
f 451/1/13 452/1/13 454/1/12
f 453/1/12 454/1/12 456/1/11
f 455/1/11 456/1/11 458/1/9
f 435/1/9 434/1/9 457/1/9
l 151 174
l 173 108
